<svg xmlns="http://www.w3.org/2000/svg" viewBox="0 0 512 512" width="512" height="512">
  <rect width="512" height="512" rx="112" fill="#ffffff" stroke="#e4e4e7" stroke-width="12"/>
  <g fill="none" stroke="#09090b" stroke-width="26" stroke-linecap="round" stroke-linejoin="round">
    <path d="M256 156c-30-26-74-30-112-24-12 2-20 12-20 24v168c0 14 12 25 26 23 34-6 74-2 106 20"/>
    <path d="M256 156c30-26 74-30 112-24 12 2 20 12 20 24v168c0 14-12 25-26 23-34-6-74-2-106 20"/>
    <path d="M256 156v212"/>
  </g>
  <path d="M300 300l26 26 54-58" fill="none" stroke="#09090b" stroke-width="26" stroke-linecap="round" stroke-linejoin="round"/>
</svg>
